<svg xmlns="http://www.w3.org/2000/svg" viewBox="0 0 600 520" fill="none">
  <rect x="18" y="18" width="564" height="484" rx="18" stroke="currentColor" stroke-width="1.4"/>
  <rect x="30" y="30" width="540" height="460" rx="12" stroke="currentColor" stroke-width=".8" opacity=".7"/>
  <path d="M58 44c22 3 35 16 38 38M542 44c-22 3-35 16-38 38M58 476c22-3 35-16 38-38M542 476c-22-3-35-16-38-38" stroke="currentColor" stroke-width="1.2" stroke-linecap="round"/>
  <path d="M72 58c8 0 14 6 14 14M528 58c-8 0-14 6-14 14M72 462c8 0 14-6 14-14M528 462c-8 0-14-6-14-14" stroke="currentColor" stroke-width="1.2" stroke-linecap="round"/>
</svg>
