<svg xmlns="http://www.w3.org/2000/svg" viewBox="0 0 120 120" fill="none">
  <circle cx="60" cy="60" r="52" stroke="currentColor" stroke-width="1.6"/>
  <circle cx="60" cy="60" r="45" stroke="currentColor" stroke-width="0.9" opacity=".75"/>
  <path d="M33 72 47 39l15 33m-22-9h16" stroke="currentColor" stroke-width="2" stroke-linecap="round" stroke-linejoin="round"/>
  <path d="M64 40h31M79.5 40v34" stroke="currentColor" stroke-width="2" stroke-linecap="round"/>
  <path d="M66 57c5-7 15-7 22 0" stroke="currentColor" stroke-width="1.4" stroke-linecap="round"/>
  <path d="M60 14c4 4 4 8 0 12-4-4-4-8 0-12Zm0 80c4 4 4 8 0 12-4-4-4-8 0-12ZM14 60c4-4 8-4 12 0-4 4-8 4-12 0Zm80 0c4-4 8-4 12 0-4 4-8 4-12 0Z" stroke="currentColor" stroke-width="1.2" stroke-linejoin="round"/>
</svg>
