<svg xmlns="http://www.w3.org/2000/svg" viewBox="0 0 420 420" fill="none">
  <g opacity=".26" stroke="currentColor" stroke-width="1.2" stroke-linecap="round" stroke-linejoin="round">
    <path d="M62 88c22 8 36 24 42 48"/>
    <path d="M78 103c-8-16-1-28 17-34 7 17 1 29-17 34ZM96 123c15-10 29-6 41 10-15 10-29 6-41-10Z"/>
    <path d="M306 58c-12 18-13 36-3 55"/>
    <path d="M306 84c-18-2-28-13-30-32 18 2 28 13 30 32ZM304 108c12-12 26-12 41 0-12 12-26 12-41 0Z"/>
    <path d="M86 304c18-7 35-4 51 9"/>
    <path d="M112 305c-15-9-18-23-9-39 15 9 18 23 9 39Z"/>
    <path d="M280 285c20 6 34 18 42 37"/>
    <path d="M300 301c-14-9-17-22-8-38 14 9 17 22 8 38ZM318 319c14-8 27-4 38 10-14 8-27 4-38-10Z"/>
  </g>
</svg>
